<?xml version="1.0" encoding="utf-8"?>
<!-- Svg Vector Icons : http://www.onlinewebfonts.com/icon -->
<!DOCTYPE svg PUBLIC "-//W3C//DTD SVG 1.1//EN" "http://www.w3.org/Graphics/SVG/1.1/DTD/svg11.dtd">
<svg version="1.1" xmlns="http://www.w3.org/2000/svg" xmlns:xlink="http://www.w3.org/1999/xlink" x="0px" y="0px" viewBox="0 0 1000 1000" enable-background="new 0 0 1000 1000" xml:space="preserve">
<metadata> Svg Vector Icons : http://www.onlinewebfonts.com/icon </metadata>
<g><path d="M805.7,620.9c-18.3,0-31.9-0.6-50.6-1.3l-9.4-0.4c-10.4-0.4-18.5-9.2-18.1-19.6c0.4-10.4,9.1-19,19.6-18.1l9.4,0.4c18.2,0.8,31.4,1.3,49.1,1.3c80.8,0,146.6-65.8,146.6-146.6c0-80.8-65.8-146.6-146.6-146.6c-21.3,0-42,4.6-61.6,13.7c-5,2.3-10.8,2.3-15.8,0.1c-5-2.3-8.8-6.6-10.3-11.9C690.3,195.1,600.6,127.7,500,127.7c-80.3,0-152.4,70.3-193.1,136c-4.7,7.7-14.3,10.9-22.7,7.7c-20.1-7.6-40.8-11.4-61.6-11.4c-80.7,0-174.9,38.4-174.9,146.6c0,92.5,72.2,169.2,164.5,174.7c10.4,0.6,18.3,9.5,17.7,19.9c-0.6,10.4-9.8,18.4-19.9,17.7C97.8,612.3,10,519,10,406.6c0-110.2,85.4-184.3,212.6-184.3c20.4,0,40.6,3,60.4,8.9C330.3,160.7,409.6,90,500,90c110.4,0,209.5,69.7,247.8,171.7c18.7-6.3,38.1-9.4,57.9-9.4c101.6,0,184.3,82.7,184.3,184.3C990,538.2,907.3,620.9,805.7,620.9z M390.2,474.4c3.6-16.9,18.2-29.1,35.5-29.7l108.6-4.1c0.5,0,0.9,0,1.4,0c11.8,0,22.9,5.5,30.1,15c7.4,9.8,9.6,22.6,5.8,34.4L530.6,616l58.4-2.2c0.3,0,0.6,0,0.9,0c0.2,0,0.5,0,0.7,0c0,0,0.1,0,0.1,0h0.1c20.8,0,37.6,16.9,37.6,37.7c0,7.7-2.3,14.9-6.3,20.9L493.2,891.5c-6.9,11.8-19.5,18.6-32.5,18.6c-4.5,0-9.1-0.8-13.6-2.5c-17.2-6.7-27.1-24.9-23.3-42.9l25.1-119.1l-70.4,0c-11.4,0-22.2-5.2-29.3-14c-7.2-8.9-9.9-20.5-7.5-31.6L390.2,474.4z M495.4,707.7l-34.7,164.6l130-220.9l-112.6,4.3l57.5-177.5l-108.6,4l-48.6,225.4L495.4,707.7z"/></g>
</svg>